<svg width="128" height="128" viewBox="0 0 128 128" fill="none" xmlns="http://www.w3.org/2000/svg">
<rect width="128" height="128" rx="14" fill="#111517"/>
<path d="M18.2016 87.97V49.89C18.2016 46.25 19.4149 43.17 21.8416 40.65C24.3149 38.0833 27.2316 36.8 30.5916 36.8H33.0416C33.7882 36.8 34.3716 37.0567 34.7916 37.57C35.2116 38.0833 35.4216 38.69 35.4216 39.39C35.4216 40.09 35.2116 40.6967 34.7916 41.21C34.3716 41.6767 33.7882 41.91 33.0416 41.91H31.5716C29.4249 41.91 27.6282 42.6333 26.1816 44.08C24.7816 45.5267 24.0582 47.3 24.0116 49.4V56.82H33.6016C34.1616 56.82 34.6049 57.0533 34.9316 57.52C35.2582 57.9867 35.4216 58.5233 35.4216 59.13C35.4216 59.7367 35.2582 60.2733 34.9316 60.74C34.6049 61.16 34.1616 61.37 33.6016 61.37H24.0116V87.97C24.0116 88.53 23.7082 89.02 23.1016 89.44C22.5416 89.8133 21.8416 90 21.0016 90C20.2082 90 19.5316 89.8133 18.9716 89.44C18.4582 89.0667 18.2016 88.5767 18.2016 87.97ZM41.3316 77.12V58.92C41.3316 58.36 41.6116 57.87 42.1716 57.45C42.7783 57.03 43.4783 56.82 44.2716 56.82C45.0183 56.82 45.6716 57.0533 46.2316 57.52C46.8383 57.94 47.1416 58.4067 47.1416 58.92V77.12C47.1416 79.22 47.935 81.11 49.5216 82.79C51.1083 84.47 52.9983 85.31 55.1916 85.31C57.3383 85.31 59.205 84.4933 60.7916 82.86C62.3783 81.18 63.1716 79.2667 63.1716 77.12V58.85C63.1716 58.3367 63.4516 57.87 64.0116 57.45C64.6183 57.03 65.3183 56.82 66.1116 56.82C66.9516 56.82 67.6283 57.03 68.1416 57.45C68.7016 57.8233 68.9816 58.29 68.9816 58.85V77.12C68.9816 80.7133 67.605 83.8633 64.8516 86.57C62.145 89.23 58.925 90.56 55.1916 90.56C51.4116 90.56 48.145 89.23 45.3916 86.57C42.685 83.8633 41.3316 80.7133 41.3316 77.12ZM78.3534 87.9V58.85C78.3534 58.2433 78.6101 57.7533 79.1234 57.38C79.6834 57.0067 80.3834 56.82 81.2234 56.82C81.9701 56.82 82.6001 57.0067 83.1134 57.38C83.6268 57.7533 83.8834 58.2433 83.8834 58.85V62.14C84.7234 60.5533 85.9601 59.2 87.5934 58.08C89.2268 56.96 91.0468 56.4 93.0534 56.4H95.4334C96.0401 56.4 96.5534 56.68 96.9734 57.24C97.4401 57.7533 97.6734 58.36 97.6734 59.06C97.6734 59.76 97.4401 60.3667 96.9734 60.88C96.5534 61.3933 96.0401 61.65 95.4334 61.65H93.0534C90.6734 61.65 88.5968 62.6067 86.8234 64.52C85.0501 66.4333 84.1634 68.9067 84.1634 71.94V87.9C84.1634 88.4133 83.8601 88.9033 83.2534 89.37C82.6934 89.79 82.0168 90 81.2234 90C80.4301 90 79.7534 89.79 79.1934 89.37C78.6334 88.95 78.3534 88.46 78.3534 87.9ZM104.446 87.9V38.83C104.446 38.2233 104.703 37.7333 105.216 37.36C105.776 36.9867 106.476 36.8 107.316 36.8C108.156 36.8 108.856 36.9867 109.416 37.36C109.976 37.7333 110.256 38.2233 110.256 38.83V87.9C110.256 88.4133 109.953 88.9033 109.346 89.37C108.786 89.79 108.109 90 107.316 90C106.523 90 105.846 89.79 105.286 89.37C104.726 88.95 104.446 88.46 104.446 87.9Z" fill="white"/>
</svg>
